<?xml version="1.0" standalone="no"?>
<!DOCTYPE svg PUBLIC "-//W3C//DTD SVG 20010904//EN"
 "http://www.w3.org/TR/2001/REC-SVG-20010904/DTD/svg10.dtd">
<svg version="1.0" xmlns="http://www.w3.org/2000/svg"
 width="180pt" height="35pt" viewBox="0 0 400 188"
 preserveAspectRatio="xMidYMid meet">

<g transform="translate(0.000000,188.000000) scale(0.100000,-0.100000)"
fill="lightgreen" stroke="none">
  <path d="M915 1840 c-99 -20 -214 -83 -293 -160 -227 -222 -219 -586 21 -873
  54 -65 127 -209 127 -251 0 -19 9 -44 19 -57 19 -24 23 -24 218 -27 120 -2
  212 1 234 7 39 12 59 43 59 90 0 40 59 152 130 246 145 193 206 400 169 577
  -6 29 -29 91 -50 137 -68 147 -214 263 -384 306 -63 16 -183 18 -250 5z m246
  -146 c226 -66 355 -300 294 -534 -23 -90 -58 -157 -136 -265 -69 -96 -149
  -245 -149 -279 0 -14 -18 -16 -134 -16 l-134 0 -13 38 c-22 69 -77 167 -140
  252 -67 90 -120 190 -137 255 -64 246 47 461 282 546 65 23 193 25 267 3z"/>
  <path d="M1015 1490 c-8 -13 4 -32 15 -25 5 3 10 -5 12 -17 4 -27 31 -31 36
  -5 2 10 -3 17 -11 17 -8 0 -17 9 -20 20 -5 21 -22 26 -32 10z"/>
  <path d="M943 1474 c-7 -19 2 -28 22 -21 19 8 19 23 0 31 -9 3 -18 -1 -22 -10z"/>
  <path d="M1082 1479 c2 -6 8 -10 13 -10 5 0 11 4 13 10 2 6 -4 11 -13 11 -9 0
  -15 -5 -13 -11z"/>
  <path d="M1116 1444 c-4 -10 -2 -22 3 -27 14 -14 43 0 39 20 -4 24 -34 28 -42
  7z"/>
  <path d="M872 1423 c2 -10 10 -18 18 -18 8 0 16 8 18 18 2 12 -3 17 -18 17
  -15 0 -20 -5 -18 -17z"/>
  <path d="M925 1430 c-8 -13 3 -30 20 -30 7 0 15 -7 19 -15 3 -8 10 -15 16 -15
  5 0 10 7 10 15 0 8 -6 15 -14 15 -7 0 -16 9 -19 20 -5 21 -22 26 -32 10z"/>
  <path d="M1086 1413 c-11 -11 -6 -23 9 -23 8 0 15 4 15 9 0 13 -16 22 -24 14z"/>
  <path d="M1165 1411 c-3 -5 -1 -12 5 -16 12 -7 30 2 30 16 0 12 -27 12 -35 0z"/>
  <path d="M1027 1398 c-21 -11 -22 -31 -3 -47 20 -16 46 -3 46 24 0 27 -19 37
  -43 23z"/>
  <path d="M1123 1384 c-7 -18 17 -38 31 -24 11 11 1 40 -14 40 -6 0 -13 -7 -17
  -16z"/>
  <path d="M844 1375 c-8 -19 12 -36 33 -28 19 7 12 37 -10 41 -9 2 -20 -4 -23
  -13z"/>
  <path d="M920 1365 c0 -8 5 -15 10 -15 6 0 10 7 10 15 0 8 -4 15 -10 15 -5 0
  -10 -7 -10 -15z"/>
  <path d="M796 1341 c-3 -5 0 -14 8 -20 10 -8 16 -8 25 2 6 8 8 17 4 20 -9 10
  -31 9 -37 -2z"/>
  <path d="M954 1335 c-9 -23 3 -45 25 -45 20 0 37 32 26 50 -9 15 -45 12 -51
  -5z"/>
  <path d="M1112 1328 c6 -18 28 -21 28 -4 0 9 -7 16 -16 16 -9 0 -14 -5 -12
  -12z"/>
  <path d="M847 1313 c-4 -3 -7 -15 -7 -25 0 -13 7 -17 25 -16 27 3 32 17 13 36
  -14 14 -22 15 -31 5z"/>
  <path d="M1160 1310 c0 -5 5 -10 10 -10 6 0 10 5 10 10 0 6 -4 10 -10 10 -5 0
  -10 -4 -10 -10z"/>
  <path d="M922 1279 c2 -6 8 -10 13 -10 5 0 11 4 13 10 2 6 -4 11 -13 11 -9 0
  -15 -5 -13 -11z"/>
  <path d="M1035 1280 c-3 -5 1 -10 9 -10 9 0 16 5 16 10 0 6 -4 10 -9 10 -6 0
  -13 -4 -16 -10z"/>
  <path d="M1118 1283 c-10 -20 -1 -38 20 -41 12 -2 22 -8 22 -13 0 -5 7 -9 15
  -9 8 0 15 5 15 10 0 6 -4 10 -9 10 -5 0 -11 10 -13 23 -3 22 -41 37 -50 20z"/>
  <path d="M1184 1278 c-4 -6 -2 -14 4 -16 7 -2 12 -10 12 -18 0 -8 4 -14 9 -14
  5 0 7 9 4 20 -4 14 1 22 18 29 23 9 22 10 -8 10 -17 1 -35 -4 -39 -11z"/>
  <path d="M988 1273 c-21 -5 -24 -23 -4 -23 8 0 16 7 20 15 3 8 4 14 3 14 -1
  -1 -10 -3 -19 -6z"/>
  <path d="M1245 1260 c-7 -12 2 -30 16 -30 12 0 12 27 0 35 -5 3 -12 1 -16 -5z"/>
  <path d="M885 1251 c-6 -11 9 -23 19 -14 9 9 7 23 -3 23 -6 0 -12 -4 -16 -9z"/>
  <path d="M835 1241 c-7 -12 12 -24 25 -16 11 7 4 25 -10 25 -5 0 -11 -4 -15
  -9z"/>
  <path d="M930 1234 c-11 -12 -10 -18 3 -32 16 -15 18 -15 34 0 13 14 14 20 3
  32 -7 9 -16 16 -20 16 -4 0 -13 -7 -20 -16z"/>
  <path d="M1020 1239 c0 -4 11 -6 25 -6 14 0 25 3 25 8 0 5 -11 8 -25 7 -14 -1
  -25 -5 -25 -9z"/>
  <path d="M1095 1230 c3 -5 8 -10 11 -10 2 0 4 5 4 10 0 6 -5 10 -11 10 -5 0
  -7 -4 -4 -10z"/>
  <path d="M805 1210 c3 -5 8 -10 11 -10 2 0 4 5 4 10 0 6 -5 10 -11 10 -5 0 -7
  -4 -4 -10z"/>
  <path d="M886 1213 c-11 -11 -6 -23 9 -23 8 0 15 4 15 9 0 13 -16 22 -24 14z"/>
  <path d="M845 1200 c-3 -5 -1 -10 4 -10 6 0 11 5 11 10 0 6 -2 10 -4 10 -3 0
  -8 -4 -11 -10z"/>
  <path d="M1070 1198 c0 -4 7 -8 15 -8 8 0 15 4 15 8 0 5 -7 9 -15 9 -8 0 -15
  -4 -15 -9z"/>
  <path d="M1207 1204 c-9 -10 2 -24 19 -24 8 0 14 7 14 15 0 15 -21 21 -33 9z"/>
  <path d="M1030 1187 c0 -7 12 -19 27 -26 26 -12 26 -12 11 10 -18 28 -38 36
  -38 16z"/>
  <path d="M1160 1180 c-11 -21 -40 -28 -40 -9 0 21 -33 4 -36 -19 -5 -29 24
  -42 41 -19 7 10 18 17 25 17 13 0 39 28 40 43 0 15 -20 6 -30 -13z"/>
  <path d="M910 1170 c0 -5 5 -12 10 -15 6 -3 10 -1 10 6 0 10 3 10 12 1 16 -16
  38 -15 38 2 0 9 -12 14 -35 14 -19 0 -35 -4 -35 -8z"/>
  <path d="M1190 1155 c0 -8 5 -15 10 -15 6 0 10 7 10 15 0 8 -4 15 -10 15 -5 0
  -10 -7 -10 -15z"/>
  <path d="M1012 1055 c-4 -101 -3 -105 17 -105 19 0 21 4 16 38 -4 32 -12 119
  -14 160 -1 6 -4 12 -8 12 -5 0 -9 -47 -11 -105z"/>
  <path d="M1930 1638 c-19 -11 -79 -52 -133 -91 -70 -50 -96 -74 -93 -86 3 -9
  8 -28 12 -43 3 -16 10 -28 14 -28 4 0 68 42 141 93 118 82 134 97 134 122 0
  17 -8 33 -20 41 -18 12 -25 11 -55 -8z"/>
  <path d="M69 1626 c-7 -14 -8 -30 -2 -40 8 -14 243 -183 269 -193 12 -5 29 80
  20 96 -4 5 -34 29 -69 52 -34 23 -83 57 -109 76 -57 40 -94 43 -109 9z"/>
  <path d="M177 1204 c-71 -12 -135 -28 -143 -35 -19 -15 -18 -53 2 -70 13 -10
  41 -8 165 11 l151 24 -6 29 c-3 16 -6 38 -6 48 0 23 0 23 -163 -7z"/>
  <path d="M1725 1218 c-12 -41 -11 -78 4 -83 49 -14 275 -46 295 -41 49 12 44
  69 -7 85 -27 9 -260 51 -281 51 -4 0 -8 -6 -11 -12z"/>
  <path d="M327 934 c-31 -43 -74 -104 -96 -135 -43 -59 -51 -98 -26 -119 30
  -25 59 -2 142 114 l82 115 -23 52 -23 52 -56 -79z"/>
  <path d="M1659 965 l-20 -46 80 -113 c44 -62 87 -119 96 -126 22 -18 64 -4 71
  24 4 19 -14 51 -91 160 -54 75 -101 139 -106 142 -5 3 -19 -15 -30 -41z"/>
  <path d="M848 389 c-16 -9 -18 -27 -18 -144 0 -151 6 -165 67 -165 25 0 43 -7
  59 -25 19 -21 32 -25 79 -25 46 0 59 4 77 25 17 19 31 25 64 25 66 0 74 19 74
  166 0 163 12 154 -211 154 -99 0 -181 -5 -191 -11z"/>
</g>

<!-- White text MySolary to the right of the logo -->
<text x="230" y="100" font-family="Arial, sans-serif" font-size="100" fill="white" font-weight="bold">MySolary</text>

</svg>
