<?xml version="1.0" standalone="no"?>
<!DOCTYPE svg PUBLIC "-//W3C//DTD SVG 20010904//EN"
 "http://www.w3.org/TR/2001/REC-SVG-20010904/DTD/svg10.dtd">
<svg version="1.0" xmlns="http://www.w3.org/2000/svg"
 width="1200.000000pt" height="1200.000000pt" viewBox="0 0 1200.000000 1200.000000"
 preserveAspectRatio="xMidYMid meet">

<g transform="translate(0.000000,1200.000000) scale(0.100000,-0.100000)"
fill="#fff" stroke="none">
<path d="M3432 6228 l3 -823 130 0 130 0 3 823 2 822 -135 0 -135 0 2 -822z"/>
<path d="M6738 7039 c-63 -7 -117 -36 -152 -82 -20 -26 -159 -416 -151 -425 1
-1 22 5 46 15 36 14 81 17 239 17 176 1 202 -1 267 -22 179 -56 242 -179 246
-481 l2 -131 -380 -3 -380 -2 2 -90 c3 -106 23 -166 64 -196 54 -38 270 -46
350 -13 40 17 63 51 73 107 l7 37 136 0 136 0 -6 -57 c-8 -95 -34 -167 -77
-216 -77 -87 -188 -112 -465 -105 -201 5 -270 22 -352 82 -72 53 -132 198
-133 321 0 25 -3 36 -10 29 -15 -15 -260 -757 -260 -789 0 -42 24 -72 68 -85
25 -6 490 -10 1391 -10 l1354 0 -29 22 c-82 63 -124 162 -124 290 l0 38 129 0
128 0 6 -51 c13 -109 55 -132 231 -127 216 6 239 34 243 293 2 131 1 156 -10
140 -31 -51 -107 -113 -158 -131 -76 -27 -301 -27 -376 -1 -107 37 -174 113
-209 236 -24 84 -31 475 -11 594 27 156 81 235 196 290 56 27 76 30 180 35
188 7 296 -33 363 -137 l29 -46 -6 88 -7 87 136 0 136 0 0 -639 c0 -512 -3
-654 -14 -713 -24 -124 -59 -188 -129 -239 l-40 -29 407 0 c270 0 422 4 452
11 28 7 62 27 90 53 42 38 48 52 98 201 30 88 57 167 60 176 6 14 -12 16 -186
11 -288 -7 -404 21 -492 119 -77 85 -105 210 -106 459 0 401 72 533 320 586
94 20 375 14 459 -10 97 -27 178 -97 213 -184 5 -15 18 -71 27 -126 l16 -98
130 387 c77 230 130 403 130 426 0 28 -7 46 -25 64 l-25 25 -1280 0 -1280 0
-3 -820 -2 -820 -137 0 -136 0 6 87 6 87 -26 -40 c-78 -114 -170 -150 -358
-141 -195 10 -282 57 -342 184 -40 87 -53 185 -53 406 0 301 23 404 110 488
69 68 136 90 286 97 105 4 131 2 193 -17 71 -22 123 -60 163 -121 16 -24 17
-7 15 293 l-2 318 -675 2 c-371 1 -700 -1 -732 -4z"/>
<path d="M1245 6559 c-137 -21 -198 -58 -242 -146 -26 -54 -28 -67 -28 -178 0
-74 5 -139 14 -169 19 -63 73 -118 137 -140 61 -19 202 -36 314 -36 99 0 201
-15 240 -35 38 -20 53 -63 48 -135 -5 -71 -29 -109 -79 -127 -44 -15 -272 -15
-323 0 -51 16 -76 51 -84 118 l-7 54 -134 3 -134 3 6 -68 c23 -246 123 -312
477 -313 302 0 448 49 511 171 29 59 42 165 30 253 -13 95 -29 133 -76 184
-55 61 -119 81 -295 93 -281 19 -330 26 -357 51 -23 21 -25 29 -21 95 6 120
44 143 236 143 136 0 176 -13 197 -64 8 -20 15 -45 15 -56 0 -19 6 -20 135
-20 l134 0 -5 53 c-3 29 -19 80 -37 117 -36 73 -84 110 -178 136 -65 19 -402
28 -494 13z"/>
<path d="M2496 6559 c-78 -10 -170 -45 -214 -80 -43 -35 -79 -96 -99 -170 -15
-54 -18 -106 -18 -339 0 -262 1 -278 23 -339 28 -77 59 -124 103 -157 84 -62
243 -90 454 -81 295 14 402 88 441 307 18 100 18 460 0 560 -34 190 -128 273
-338 300 -96 12 -253 11 -352 -1z m294 -210 c118 -25 143 -87 144 -349 1 -96
-3 -201 -7 -232 -16 -113 -73 -157 -210 -165 -113 -7 -192 10 -233 51 -51 51
-59 95 -58 326 0 225 10 284 59 330 47 44 193 63 305 39z"/>
<path d="M4244 6559 c-172 -22 -274 -130 -274 -291 l0 -48 129 0 129 0 7 40
c9 55 47 97 98 111 59 16 223 7 267 -14 64 -31 74 -62 78 -232 l4 -150 -41 47
c-64 72 -103 83 -296 83 -180 0 -242 -13 -313 -65 -100 -72 -137 -265 -86
-448 38 -134 170 -202 396 -202 185 0 279 38 332 135 16 29 17 29 11 -48 l-7
-78 134 3 133 3 3 370 c2 222 -1 408 -8 465 -12 103 -43 186 -87 232 -39 40
-128 76 -223 87 -96 12 -295 12 -386 0z m360 -659 c47 -24 69 -63 74 -128 6
-81 -21 -141 -74 -168 -55 -27 -302 -28 -350 -2 -58 32 -83 151 -49 235 28 69
68 83 240 80 93 -1 138 -6 159 -17z"/>
<path d="M5637 6555 c-68 -19 -123 -58 -158 -112 l-29 -47 0 82 0 83 -127 -3
-128 -3 0 -575 0 -575 133 -3 132 -3 0 391 c0 428 3 461 54 515 51 54 158 72
226 37 41 -20 58 -68 59 -164 l1 -58 125 0 125 0 0 73 c0 218 -66 337 -201
366 -65 14 -152 13 -212 -4z"/>
<path d="M6623 6350 c-106 -12 -136 -46 -147 -167 l-6 -73 250 0 251 0 -6 63
c-9 94 -30 142 -68 160 -39 18 -189 28 -274 17z"/>
<path d="M7785 6346 c-59 -17 -98 -57 -117 -118 -18 -59 -18 -449 0 -498 17
-48 55 -88 99 -106 43 -18 225 -22 231 -4 2 5 8 7 13 4 12 -7 55 20 85 55 35
39 44 104 44 305 0 247 -17 300 -115 349 -45 22 -179 30 -240 13z"/>
<path d="M8990 6351 c-69 -14 -94 -33 -125 -96 l-30 -60 0 -210 c1 -175 4
-217 18 -255 36 -92 93 -123 223 -122 130 1 204 42 233 128 7 21 15 108 18
194 9 259 -17 355 -109 398 -47 22 -171 35 -228 23z"/>
<path d="M10160 6350 c-112 -16 -135 -41 -146 -163 l-7 -77 248 0 248 0 -5 80
c-5 87 -23 124 -69 147 -33 16 -190 24 -269 13z"/>
<path d="M10013 5914 c-10 -27 8 -186 25 -222 26 -53 57 -71 147 -82 201 -26
314 20 315 127 l0 32 77 3 77 3 23 65 c12 36 23 71 23 78 0 10 -71 12 -341 12
-294 -1 -341 -3 -346 -16z"/>
</g>
</svg>
