<?xml version="1.0" standalone="no"?>
<!DOCTYPE svg PUBLIC "-//W3C//DTD SVG 20010904//EN"
 "http://www.w3.org/TR/2001/REC-SVG-20010904/DTD/svg10.dtd">
<svg version="1.0" xmlns="http://www.w3.org/2000/svg"
 width="1000.000000pt" height="1000.000000pt" viewBox="0 0 1000.000000 1000.000000"
 preserveAspectRatio="xMidYMid meet">

<g transform="translate(0.000000,1000.000000) scale(0.100000,-0.100000)"
fill="#fff" stroke="none">
<path d="M2519 6345 c-174 -47 -279 -179 -279 -349 0 -84 14 -136 55 -201 37
-59 78 -96 149 -133 46 -24 61 -27 156 -27 91 1 112 4 155 25 28 13 56 30 62
36 7 7 23 21 35 31 37 30 85 105 104 162 24 73 14 182 -23 258 -29 58 -115
153 -139 153 -8 0 -14 4 -14 9 0 12 -139 51 -180 50 -19 0 -56 -7 -81 -14z"/>
<path d="M328 6033 c-32 -14 -58 -30 -58 -36 0 -5 -11 -20 -24 -32 -42 -39
-66 -167 -52 -279 l7 -56 290 -2 290 -3 -1 -737 c0 -480 3 -739 10 -743 8 -5
168 -7 428 -5 l37 0 -3 739 c-2 664 -1 741 14 755 13 14 49 16 267 14 l252 -2
-255 -6 -255 -6 285 1 285 0 -3 120 c-1 66 -7 131 -13 145 -46 104 -51 111
-117 140 -42 19 -69 20 -685 19 l-642 0 -57 -26z m72 -3 c0 -5 -4 -10 -10 -10
-5 0 -10 5 -10 10 0 6 5 10 10 10 6 0 10 -4 10 -10z m1287 -21 c-9 -5 -303 -8
-654 -6 l-638 2 643 3 c444 1 642 5 642 13 0 5 5 7 11 3 8 -5 7 -9 -4 -15z
m-1322 1 c3 -5 1 -10 -4 -10 -6 0 -11 5 -11 10 0 6 2 10 4 10 3 0 8 -4 11 -10z
m1392 -6 c-3 -3 -12 -4 -19 -1 -8 3 -5 6 6 6 11 1 17 -2 13 -5z m-1490 -76
c-3 -8 -6 -5 -6 6 -1 11 2 17 5 13 3 -3 4 -12 1 -19z m-30 -40 c-3 -7 -5 -2
-5 12 0 14 2 19 5 13 2 -7 2 -19 0 -25z m-10 -160 c-2 -29 -3 -8 -3 47 0 55 1
79 3 53 2 -26 2 -71 0 -100z m1583 127 c0 -8 -4 -15 -10 -15 -5 0 -10 7 -10
15 0 8 5 15 10 15 6 0 10 -7 10 -15z m-1502 -182 c-10 -2 -28 -2 -40 0 -13 2
-5 4 17 4 22 1 32 -1 23 -4z m405 0 c-7 -2 -21 -2 -30 0 -10 3 -4 5 12 5 17 0
24 -2 18 -5z m80 0 c-7 -2 -19 -2 -25 0 -7 3 -2 5 12 5 14 0 19 -2 13 -5z
m492 -3 c-3 -5 -12 -7 -20 -3 -21 7 -19 13 6 13 11 0 18 -4 14 -10z m508 3
c-7 -2 -21 -2 -30 0 -10 3 -4 5 12 5 17 0 24 -2 18 -5z m-558 -40 c-3 -16 -11
-29 -16 -31 -5 -2 -10 -294 -11 -725 l-3 -722 -3 690 c-3 730 -1 815 25 815
12 0 14 -7 8 -27z m-692 10 c-57 -2 -149 -2 -205 0 -57 1 -11 3 102 3 113 0
159 -2 103 -3z m165 0 c-10 -2 -28 -2 -40 0 -13 2 -5 4 17 4 22 1 32 -1 23 -4z
m432 -1453 c0 -5 -2 -10 -4 -10 -3 0 -8 5 -11 10 -3 6 -1 10 4 10 6 0 11 -4
11 -10z"/>
<path d="M7760 5045 l0 -905 39 0 c22 0 42 5 44 13 4 10 6 10 6 0 1 -16 33
-17 49 -1 9 9 12 219 12 882 0 479 -3 881 -6 894 -7 26 -31 29 -37 5 -4 -17
-5 -17 -6 0 -1 14 -10 17 -51 17 l-50 0 0 -905z m127 813 c-2 -13 -4 -5 -4 17
-1 22 1 32 4 23 2 -10 2 -28 0 -40z m0 -1670 c-2 -13 -4 -5 -4 17 -1 22 1 32
4 23 2 -10 2 -28 0 -40z"/>
<path d="M2173 5443 c-29 -2 -53 -8 -53 -14 0 -5 -13 -9 -29 -9 -51 0 -171
-48 -171 -68 0 -7 -4 -10 -10 -7 -5 3 -20 -1 -34 -10 -31 -20 -36 -10 -32 54
l4 51 -204 0 -204 0 0 -656 0 -657 61 7 c34 3 131 6 215 6 l153 0 1 340 c0
293 3 347 17 382 19 48 108 141 155 161 18 8 49 22 68 30 19 8 56 18 83 22
l47 7 0 184 c0 101 -3 183 -7 182 -5 -1 -32 -3 -60 -5z m-378 -63 c3 -5 -3
-10 -15 -10 -12 0 -18 5 -15 10 3 6 10 10 15 10 5 0 12 -4 15 -10z m270 -10
c-3 -5 -15 -10 -26 -10 -11 0 -17 5 -14 10 3 6 15 10 26 10 11 0 17 -4 14 -10z
m92 -6 c-3 -3 -12 -4 -19 -1 -8 3 -5 6 6 6 11 1 17 -2 13 -5z m-310 -76 c-3
-8 -6 -5 -6 6 -1 11 2 17 5 13 3 -3 4 -12 1 -19z m48 12 c-3 -5 -10 -10 -16
-10 -5 0 -9 5 -9 10 0 6 7 10 16 10 8 0 12 -4 9 -10z m258 -187 c-7 -2 -21 -2
-30 0 -10 3 -4 5 12 5 17 0 24 -2 18 -5z m70 0 c-7 -2 -19 -2 -25 0 -7 3 -2 5
12 5 14 0 19 -2 13 -5z m-108 -33 c-3 -5 -13 -10 -21 -10 -8 0 -14 5 -14 10 0
6 9 10 21 10 11 0 17 -4 14 -10z m-128 -57 c2 -6 -4 -13 -13 -17 -21 -8 -26
-3 -18 18 7 18 25 17 31 -1z m-67 -73 c-19 -13 -30 -13 -30 0 0 6 10 10 23 10
18 0 19 -2 7 -10z m-69 -77 c-8 -15 -10 -15 -11 -2 0 17 10 32 18 25 2 -3 -1
-13 -7 -23z m-4 -105 c-2 -13 -4 -5 -4 17 -1 22 1 32 4 23 2 -10 2 -28 0 -40z
m-17 -577 c0 -12 -20 -25 -27 -18 -7 7 6 27 18 27 5 0 9 -4 9 -9z"/>
<path d="M2377 5444 c-4 -4 -7 -19 -6 -33 l1 -26 8 25 c4 14 7 -263 7 -615
l-2 -640 -5 610 -5 610 -2 -600 c-2 -330 0 -610 3 -622 6 -23 7 -23 225 -23
196 0 249 6 207 23 -8 3 -6 6 5 6 16 1 17 37 15 644 l-3 642 -221 3 c-121 1
-223 -1 -227 -4z m407 -70 c3 -8 2 -12 -4 -9 -6 3 -10 10 -10 16 0 14 7 11 14
-7z m16 -1174 c13 -9 13 -11 0 -20 -18 -12 -50 -13 -50 -2 0 9 21 32 30 32 3
0 12 -5 20 -10z"/>
<path d="M3008 5442 c-16 -2 -28 -9 -28 -18 0 -8 -4 -14 -10 -14 -7 0 -10
-220 -10 -641 l0 -642 61 7 c34 3 132 6 218 7 96 0 148 4 136 9 -17 7 -17 9
-3 9 17 1 18 34 20 497 l3 497 95 2 c103 3 182 -7 188 -24 2 -6 9 -11 17 -11
15 0 37 -49 40 -88 1 -15 3 -221 3 -459 l2 -432 210 -3 c116 -2 210 -1 210 2
1 407 1 981 1 998 -1 13 -7 22 -17 22 -13 0 -15 6 -10 33 9 45 -33 122 -91
167 -91 70 -115 73 -593 79 -228 3 -427 5 -442 3z m16 -38 c9 -3 16 -16 16
-28 -1 -20 -2 -20 -14 -3 -7 9 -19 17 -25 17 -7 0 -9 5 -6 10 7 12 8 12 29 4z
m895 -10 c2 -2 2 -6 0 -9 -8 -8 -79 7 -79 17 0 8 69 1 79 -8z m-929 -24 c0 -5
-5 -10 -11 -10 -5 0 -7 5 -4 10 3 6 8 10 11 10 2 0 4 -4 4 -10z m1015 0 c3 -6
-1 -7 -9 -4 -18 7 -21 14 -7 14 6 0 13 -4 16 -10z m-38 -6 c-3 -3 -12 -4 -19
-1 -8 3 -5 6 6 6 11 1 17 -2 13 -5z m90 -76 c-3 -8 -6 -5 -6 6 -1 11 2 17 5
13 3 -3 4 -12 1 -19z m-42 2 c3 -5 1 -10 -4 -10 -6 0 -11 5 -11 10 0 6 2 10 4
10 3 0 8 -4 11 -10z m95 -52 c0 -5 -4 -8 -10 -8 -5 0 -10 10 -10 23 0 18 2 19
10 7 5 -8 10 -18 10 -22z m-90 -24 c0 -8 -4 -12 -10 -9 -5 3 -10 10 -10 16 0
5 5 9 10 9 6 0 10 -7 10 -16z m-587 -21 c-7 -2 -19 -2 -25 0 -7 3 -2 5 12 5
14 0 19 -2 13 -5z m75 0 c-10 -2 -28 -2 -40 0 -13 2 -5 4 17 4 22 1 32 -1 23
-4z m-136 -28 c-2 -14 -6 -25 -8 -25 -2 0 -4 11 -4 25 0 14 4 25 9 25 4 0 6
-11 3 -25z m293 15 c-28 -12 -65 -12 -65 0 0 6 19 10 43 9 32 0 37 -2 22 -9z
m465 -50 c0 -5 -4 -10 -10 -10 -5 0 -10 5 -10 10 0 6 5 10 10 10 6 0 10 -4 10
-10z m-373 -82 c-3 -7 -5 -2 -5 12 0 14 2 19 5 13 2 -7 2 -19 0 -25z"/>
<path d="M4340 5345 c0 -87 12 -145 31 -145 4 0 9 6 12 13 2 6 3 4 2 -5 -7
-46 76 -60 321 -56 184 3 204 1 242 -17 48 -23 59 -47 64 -144 l3 -65 -190 3
c-104 1 -221 -3 -260 -9 -74 -11 -135 -34 -135 -50 0 -6 -6 -10 -13 -10 -18 0
-68 -56 -94 -105 -65 -123 -51 -378 25 -486 47 -66 53 -72 102 -99 50 -28 32
-27 683 -32 l307 -3 0 507 c0 327 -4 509 -10 513 -5 3 -10 19 -10 34 0 57 -49
131 -126 191 -25 20 -84 40 -117 40 -14 0 -29 5 -32 10 -4 6 -150 10 -406 10
l-399 0 0 -95z m815 55 c3 -5 -3 -10 -14 -10 -12 0 -21 5 -21 10 0 6 6 10 14
10 8 0 18 -4 21 -10z m98 -37 c-7 -2 -19 -2 -25 0 -7 3 -2 5 12 5 14 0 19 -2
13 -5z m-881 -89 c-6 -11 -11 -13 -16 -5 -4 6 -2 11 3 11 6 0 12 19 13 43 l1
42 4 -37 c2 -21 0 -45 -5 -54z m928 66 c0 -5 12 -16 26 -23 17 -9 23 -17 16
-21 -7 -4 -20 -2 -31 4 -16 8 -20 6 -24 -8 -3 -9 -5 0 -6 21 0 20 4 37 9 37 6
0 10 -4 10 -10z m67 -112 c-3 -8 -6 -5 -6 6 -1 11 2 17 5 13 3 -3 4 -12 1 -19z
m-897 -38 c12 -8 12 -10 -5 -10 -11 0 -27 5 -35 10 -12 8 -12 10 5 10 11 0 27
-5 35 -10z m919 -44 c-14 -16 -20 0 -13 30 l8 29 6 -25 c4 -14 3 -29 -1 -34z
m-439 34 c8 -5 12 -11 9 -14 -3 -3 -14 1 -25 9 -21 16 -8 20 16 5z m-43 -6
c-3 -3 -12 -4 -19 -1 -8 3 -5 6 6 6 11 1 17 -2 13 -5z m132 -117 c0 -21 -1
-21 -9 -2 -12 28 -12 37 0 30 6 -3 10 -16 9 -28z m-156 -144 c-46 -2 -120 -2
-165 0 -46 1 -9 3 82 3 91 0 128 -2 83 -3z m159 -23 c-4 -3 -115 -3 -247 0
l-240 6 215 3 c118 2 225 3 238 2 12 -1 22 4 22 11 0 9 3 9 10 -2 5 -8 6 -17
2 -20z m-562 -30 c0 -5 -5 -10 -11 -10 -5 0 -7 5 -4 10 3 6 8 10 11 10 2 0 4
-4 4 -10z m-63 -76 c-3 -3 -13 0 -21 9 -8 8 -12 18 -9 21 4 4 14 0 22 -9 8 -8
12 -17 8 -21z m63 26 c0 -5 -8 -10 -17 -10 -15 0 -16 2 -3 10 19 12 20 12 20
0z m-109 -73 c-13 -13 -15 11 -4 40 7 16 8 15 11 -6 2 -13 -1 -28 -7 -34z
m618 -37 c17 -9 -159 -1 -209 10 -19 4 17 5 80 2 63 -2 121 -8 129 -12z m-66
-27 c-24 -2 -62 -2 -85 0 -24 2 -5 4 42 4 47 0 66 -2 43 -4z m88 -123 c1 -58
1 -110 0 -116 -1 -8 -38 -12 -116 -13 -101 -1 -120 1 -144 18 -32 23 -64 112
-43 119 7 2 12 14 12 26 0 13 8 34 19 47 18 23 23 24 145 24 l127 -1 0 -104z
m-699 -30 c-4 -68 -8 -86 -13 -65 -10 47 -10 105 1 105 6 0 10 14 10 32 0 17
2 29 4 27 3 -3 2 -47 -2 -99z m362 -25 c3 -8 1 -15 -4 -15 -6 0 -10 7 -10 15
0 8 2 15 4 15 2 0 6 -7 10 -15z m93 -91 c-3 -3 -12 -4 -19 -1 -8 3 -5 6 6 6
11 1 17 -2 13 -5z m-377 -91 c0 -5 -8 -17 -17 -28 -14 -18 -15 -18 -9 -2 3 10
6 23 6 28 0 5 5 9 10 9 6 0 10 -3 10 -7z m40 -77 c0 -2 -7 -6 -15 -10 -8 -3
-15 -1 -15 4 0 6 7 10 15 10 8 0 15 -2 15 -4z m50 -15 c0 -10 -30 -24 -37 -17
-3 3 -2 9 2 15 8 13 35 15 35 2z"/>
<path d="M5860 5420 c-110 -29 -149 -48 -143 -71 4 -15 0 -19 -20 -19 -30 0
-59 -35 -81 -101 -21 -58 -21 -143 -1 -159 9 -7 13 -21 10 -30 -8 -24 5 -56
16 -39 13 22 21 2 9 -22 -11 -19 -10 -21 4 -16 10 4 15 3 12 -2 -3 -4 12 -26
34 -47 50 -49 57 -55 103 -79 20 -11 37 -23 37 -27 0 -5 6 -8 13 -8 6 0 50
-16 97 -35 47 -19 95 -35 107 -35 12 0 23 -4 25 -8 6 -14 170 -92 181 -85 6 3
7 1 3 -5 -9 -15 31 -55 46 -46 7 4 8 3 4 -4 -4 -7 1 -28 10 -48 15 -31 16 -44
4 -107 -6 -40 -19 -82 -27 -95 -10 -17 -11 -27 -4 -36 8 -10 6 -18 -9 -31 -21
-19 -28 -7 -8 13 22 22 -1 24 -30 3 -16 -11 -49 -25 -73 -30 -54 -13 -329 -14
-424 -1 -51 6 -72 6 -77 -3 -6 -9 -8 -9 -8 -1 0 7 -11 14 -25 16 -24 5 -25 4
-23 -51 1 -47 2 -49 5 -16 6 58 19 63 15 6 -4 -57 -14 -53 181 -72 236 -22
456 3 517 60 14 13 35 30 48 39 13 8 21 21 18 29 -3 8 -2 12 3 9 11 -7 51 58
51 81 0 9 5 31 12 49 14 39 -2 143 -30 206 -18 39 -28 47 -35 26 -2 -7 -3 -4
-1 6 7 46 -105 119 -336 217 -239 102 -272 124 -310 204 -16 34 -18 51 -10
102 11 83 22 100 88 131 56 27 59 27 252 25 107 -1 220 -6 250 -11 74 -13 81
-9 78 44 -3 41 -6 45 -38 55 -19 6 -69 13 -110 16 -41 3 -83 9 -92 14 -29 16
-247 8 -318 -11z m60 -20 c0 -5 -7 -10 -16 -10 -8 0 -12 5 -9 10 3 6 10 10 16
10 5 0 9 -4 9 -10z m280 -16 c0 -2 -9 -4 -20 -4 -11 0 -20 4 -20 9 0 5 9 7 20
4 11 -3 20 -7 20 -9z m-360 -3 c0 -5 -11 -11 -25 -13 -28 -6 -35 8 -7 15 28 8
32 7 32 -2z m538 2 c-10 -2 -28 -2 -40 0 -13 2 -5 4 17 4 22 1 32 -1 23 -4z
m-453 -43 c0 -8 -10 -16 -22 -18 -27 -4 -31 15 -5 21 9 2 5 3 -10 2 -16 -1
-28 2 -28 7 0 5 15 8 33 6 20 -2 32 -8 32 -18z m262 14 c-3 -3 -12 -4 -19 -1
-8 3 -5 6 6 6 11 1 17 -2 13 -5z m-49 -11 c-10 -2 -28 -2 -40 0 -13 2 -5 4 17
4 22 1 32 -1 23 -4z m181 3 c-2 -2 -31 -6 -64 -9 -37 -3 -51 -2 -35 3 25 8
107 13 99 6z m-559 -26 c0 -5 -4 -10 -9 -10 -6 0 -13 5 -16 10 -3 6 1 10 9 10
9 0 16 -4 16 -10z m635 0 c4 -6 -11 -10 -37 -9 -33 0 -38 2 -23 9 28 12 53 12
60 0z m-717 -76 c-3 -14 -5 -12 -10 9 -3 19 -2 25 4 19 6 -6 8 -18 6 -28z
m-19 -39 c0 -5 -4 -3 -9 5 -5 8 -9 22 -9 30 0 16 17 -16 18 -35z m70 -32 c-1
-18 -3 -21 -6 -10 -2 9 -9 15 -14 12 -5 -4 -9 1 -9 9 0 9 7 16 15 16 10 0 15
-9 14 -27z m-44 -83 c-5 -31 -10 -39 -18 -31 -9 9 -8 17 1 31 6 11 12 27 12
37 0 9 3 14 6 10 3 -3 3 -24 -1 -47z m73 -155 c3 -18 3 -18 -10 -4 -7 9 -20
19 -28 23 -8 3 -4 4 10 3 16 -1 26 -9 28 -22z m110 -15 c10 -1 28 -7 42 -15
l25 -14 -25 -1 c-29 0 -70 25 -69 43 0 9 2 9 6 0 2 -7 12 -13 21 -13z m-51
-56 c-3 -3 -12 -4 -19 -1 -8 3 -5 6 6 6 11 1 17 -2 13 -5z m203 -24 c0 -5 -4
-10 -10 -10 -5 0 -10 5 -10 10 0 6 5 10 10 10 6 0 10 -4 10 -10z m64 -41 c-3
-6 -16 -8 -28 -5 -11 3 -27 1 -35 -3 -8 -5 -21 -7 -28 -4 -25 10 7 23 55 23
28 0 41 -4 36 -11z m-21 -36 c-7 -2 -21 -2 -30 0 -10 3 -4 5 12 5 17 0 24 -2
18 -5z m186 -18 c1 -2 0 -8 -3 -14 -5 -7 -15 -7 -34 1 -47 20 -50 31 -7 23 22
-4 42 -8 44 -10z m-89 -34 c0 -5 -9 -7 -20 -4 -11 3 -20 7 -20 9 0 2 9 4 20 4
11 0 20 -4 20 -9z m188 -23 c-6 -18 -28 -21 -28 -4 0 9 7 16 16 16 9 0 14 -5
12 -12z m-108 -18 c0 -5 -5 -10 -11 -10 -5 0 -7 5 -4 10 3 6 8 10 11 10 2 0 4
-4 4 -10z m84 -35 c-4 -8 -11 -12 -16 -9 -6 4 -5 10 3 15 19 12 19 11 13 -6z
m53 -137 c-2 -13 -4 -5 -4 17 -1 22 1 32 4 23 2 -10 2 -28 0 -40z m30 -5 c-3
-10 -5 -4 -5 12 0 17 2 24 5 18 2 -7 2 -21 0 -30z m53 -57 c0 -52 -6 -43 -13
18 -3 30 -1 43 4 35 5 -8 9 -32 9 -53z m-97 2 c3 -21 2 -38 -4 -38 -5 0 -9 19
-9 42 0 49 5 47 13 -4z m77 -75 c0 -35 -14 -73 -23 -63 -7 10 5 100 14 100 5
0 9 -17 9 -37z m-40 -28 c0 -8 -7 -15 -15 -15 -16 0 -20 12 -8 23 11 12 23 8
23 -8z m-63 -112 c-3 -3 -13 1 -21 10 -8 8 -12 17 -9 20 3 3 12 -1 20 -9 9 -8
13 -18 10 -21z m-67 2 c0 -8 -7 -15 -15 -15 -8 0 -15 7 -15 15 0 8 7 15 15 15
8 0 15 -7 15 -15z m-553 -51 c-3 -3 -12 -4 -19 -1 -8 3 -5 6 6 6 11 1 17 -2
13 -5z m116 -21 c-7 -2 -19 -2 -25 0 -7 3 -2 5 12 5 14 0 19 -2 13 -5z m313 0
c-7 -7 -226 -18 -226 -11 0 3 -12 8 -27 10 -16 2 36 3 114 3 78 0 141 -1 139
-2z m87 0 c-7 -2 -19 -2 -25 0 -7 3 -2 5 12 5 14 0 19 -2 13 -5z"/>
<path d="M6957 5434 c-3 -4 -27 -10 -52 -15 -78 -14 -203 -88 -189 -110 3 -5
-2 -6 -10 -3 -10 4 -26 -12 -50 -50 -82 -128 -104 -225 -105 -456 -1 -187 7
-280 25 -280 8 0 14 -9 14 -19 0 -11 6 -21 13 -24 6 -2 2 -3 -10 -1 -20 4 -21
2 -10 -29 16 -50 59 -141 74 -155 7 -7 19 -23 28 -34 8 -12 18 -18 22 -14 4 4
1 11 -7 16 -8 5 -11 12 -7 17 10 10 28 -18 22 -35 -2 -6 15 -24 38 -39 23 -16
44 -31 47 -34 3 -4 43 -16 89 -28 129 -32 279 -28 404 11 41 12 46 22 20 37
-14 8 -15 12 -6 22 10 10 17 8 34 -9 l20 -22 31 22 c19 13 26 24 19 26 -7 2
-18 -1 -24 -7 -15 -15 -24 -14 -30 2 -4 10 7 13 39 12 46 -2 44 -4 107 75 28
34 37 74 27 110 -5 19 -10 42 -9 50 1 8 6 -5 13 -30 l12 -45 13 35 c7 19 15
66 18 103 3 37 10 70 14 73 13 8 9 331 -4 396 -11 51 -26 86 -27 62 -1 -5 -7
-31 -15 -59 l-14 -50 0 40 c0 22 6 49 14 59 8 11 15 31 15 45 0 32 -38 113
-78 168 -25 33 -35 40 -54 36 -19 -5 -21 -3 -11 7 10 11 6 18 -20 37 -66 50
-197 92 -197 64 0 -6 -9 -11 -20 -11 -13 0 -20 7 -20 20 0 19 -7 20 -98 20
-54 0 -101 -3 -105 -6z m320 -40 c-3 -3 -12 -4 -19 -1 -8 3 -5 6 6 6 11 1 17
-2 13 -5z m-50 -20 c-3 -3 -12 -4 -19 -1 -8 3 -5 6 6 6 11 1 17 -2 13 -5z
m-400 -10 c-3 -3 -12 -4 -19 -1 -8 3 -5 6 6 6 11 1 17 -2 13 -5z m446 -4 c-14
-6 -21 -15 -17 -23 6 -17 -43 -27 -72 -16 -14 6 -8 8 19 8 36 1 54 20 20 22
-28 1 16 18 47 18 25 0 25 0 3 -9z m-330 -7 c-13 -2 -33 -2 -45 0 -13 2 -3 4
22 4 25 0 35 -2 23 -4z m176 -9 c8 -7 -74 -2 -99 6 -16 5 -2 6 35 3 33 -3 62
-7 64 -9z m69 9 c-10 -2 -26 -2 -35 0 -10 3 -2 5 17 5 19 0 27 -2 18 -5z m179
-35 c-3 -7 -5 -2 -5 12 0 14 2 19 5 13 2 -7 2 -19 0 -25z m-364 15 c-7 -2 -21
-2 -30 0 -10 3 -4 5 12 5 17 0 24 -2 18 -5z m-235 -29 c-9 -9 -21 -13 -28 -9
-14 9 5 25 30 25 12 0 12 -3 -2 -16z m395 5 c83 -13 127 -33 178 -81 50 -46
99 -142 99 -194 0 -12 4 -25 9 -29 13 -8 6 -403 -8 -485 -13 -71 -49 -150 -88
-192 -14 -15 -51 -40 -82 -55 -53 -26 -64 -28 -186 -28 -166 0 -212 13 -276
76 -51 51 -71 84 -97 158 -20 60 -29 580 -9 596 18 15 67 114 67 136 0 11 -7
19 -16 19 -9 0 -14 5 -12 12 6 18 28 21 28 4 0 -21 24 -20 57 1 l26 17 -24 7
c-20 6 -18 7 13 8 20 1 47 6 60 11 22 10 116 26 166 29 13 0 56 -4 95 -10z
m-366 -21 c-3 -8 -6 -5 -6 6 -1 11 2 17 5 13 3 -3 4 -12 1 -19z m-96 -51 c-8
-8 -11 -5 -11 9 0 27 14 41 18 19 2 -9 -1 -22 -7 -28z m649 39 c0 -2 3 -13 6
-23 3 -11 2 -14 -3 -7 -4 6 -17 16 -28 22 -19 11 -19 11 3 12 12 0 22 -2 22
-4z m130 -26 c0 -5 -4 -10 -10 -10 -5 0 -10 5 -10 10 0 6 5 10 10 10 6 0 10
-4 10 -10z m-10 -41 c0 -14 -17 -10 -23 5 -4 10 -1 13 9 9 7 -3 14 -9 14 -14z
m-817 -6 c-7 -2 -14 -17 -14 -31 -1 -18 -3 -21 -6 -9 -6 24 3 47 19 46 10 0
10 -2 1 -6z m96 -20 c-10 -11 -14 -11 -20 -1 -14 21 -10 26 11 21 16 -4 18 -8
9 -20z m691 10 c0 -5 -4 -13 -8 -20 -6 -9 -11 -7 -20 7 -11 17 -10 20 8 20 11
0 20 -3 20 -7z m-818 -105 c-2 -27 -8 -48 -13 -48 -13 0 -11 74 3 88 15 15 15
15 10 -40z m58 -68 c0 -5 -4 -10 -10 -10 -5 0 -10 5 -10 10 0 6 5 10 10 10 6
0 10 -4 10 -10z m-33 -52 c-3 -7 -5 -2 -5 12 0 14 2 19 5 13 2 -7 2 -19 0 -25z
m870 0 c-3 -7 -5 -2 -5 12 0 14 2 19 5 13 2 -7 2 -19 0 -25z m-842 -93 c-4
-42 -10 -74 -12 -71 -3 2 -2 39 2 81 4 42 10 74 12 71 3 -2 2 -39 -2 -81z
m802 48 c-3 -10 -5 -4 -5 12 0 17 2 24 5 18 2 -7 2 -21 0 -30z m42 -178 c-2
-102 -8 -185 -13 -185 -5 0 -6 27 -2 61 3 34 6 118 6 185 0 68 3 124 6 124 3
0 5 -83 3 -185z m-872 -7 c-2 -13 -4 -3 -4 22 0 25 2 35 4 23 2 -13 2 -33 0
-45z m19 -91 c-6 -54 -3 -84 8 -117 8 -24 13 -46 11 -49 -19 -19 -37 88 -29
172 4 37 9 67 11 67 3 0 2 -33 -1 -73z m811 -74 c-3 -10 -5 -2 -5 17 0 19 2
27 5 18 2 -10 2 -26 0 -35z m82 -36 c0 -10 -3 -16 -8 -12 -14 8 -24 62 -14 77
7 13 19 -21 22 -65z m-949 13 c0 -5 -4 -10 -10 -10 -5 0 -10 5 -10 10 0 6 5
10 10 10 6 0 10 -4 10 -10z m21 -150 c5 0 9 -10 9 -22 0 -21 -1 -21 -15 6 -8
15 -14 33 -14 40 1 6 3 3 6 -6 2 -10 9 -18 14 -18z m96 -12 c-3 -8 -6 -5 -6 6
-1 11 2 17 5 13 3 -3 4 -12 1 -19z m693 -18 c0 -5 -5 -10 -11 -10 -5 0 -7 5
-4 10 3 6 8 10 11 10 2 0 4 -4 4 -10z m-700 -60 c0 -5 -7 -7 -15 -4 -8 4 -15
8 -15 10 0 2 7 4 15 4 8 0 15 -4 15 -10z m732 -42 c-7 -7 -12 -8 -12 -2 0 14
12 26 19 19 2 -3 -1 -11 -7 -17z m-102 2 c8 -5 12 -11 9 -14 -7 -8 -49 5 -49
15 0 12 21 11 40 -1z m-511 -14 c-2 -2 -15 -9 -29 -15 -24 -11 -24 -11 -6 3
16 13 49 24 35 12z m-69 -26 c8 -5 12 -11 9 -14 -3 -3 -14 1 -25 9 -21 16 -8
20 16 5z m173 -77 c-13 -2 -33 -2 -45 0 -13 2 -3 4 22 4 25 0 35 -2 23 -4z
m162 -9 c-55 -8 -111 -13 -125 -11 -14 2 -5 5 20 6 25 1 40 5 34 9 -7 4 29 8
80 8 l91 1 -100 -13z"/>
<path d="M8397 5434 c-4 -4 -42 -11 -85 -15 -42 -4 -95 -11 -117 -16 -38 -8
-40 -11 -46 -52 -4 -31 -2 -44 8 -48 7 -3 64 0 126 6 143 14 322 14 402 0 48
-8 71 -18 103 -47 55 -50 74 -119 70 -267 l-3 -107 -176 1 c-190 2 -312 -6
-303 -20 3 -5 -13 -9 -36 -9 -22 0 -48 -4 -58 -9 -9 -4 -39 -19 -67 -32 -48
-23 -90 -62 -90 -84 0 -5 -4 -15 -10 -22 -5 -7 -16 -19 -23 -27 -18 -22 -35
-167 -28 -244 8 -96 17 -142 27 -142 5 0 9 -7 9 -15 0 -24 19 -17 26 10 3 14
10 25 15 25 12 0 11 -7 -3 -29 -9 -15 -8 -22 5 -36 23 -22 21 -28 -4 -15 -20
11 -20 11 2 -19 12 -17 28 -31 35 -31 7 0 17 -6 21 -13 24 -37 148 -62 281
-54 98 5 242 34 242 49 0 4 7 8 14 8 8 0 36 11 62 25 65 34 72 33 76 -17 3
-49 14 -54 84 -43 l44 6 0 474 c0 299 -4 493 -11 527 -18 90 -32 128 -45 128
-7 0 -11 6 -8 13 2 7 -5 22 -16 32 -18 17 -23 17 -31 5 -8 -12 -9 -10 -4 6 5
18 -3 26 -43 47 -27 14 -82 31 -123 38 -87 14 -311 23 -322 13z m-124 -41 c-7
-2 -19 -2 -25 0 -7 3 -2 5 12 5 14 0 19 -2 13 -5z m44 -9 c-3 -3 -12 -4 -19
-1 -8 3 -5 6 6 6 11 1 17 -2 13 -5z m468 -4 c-11 -5 -31 -9 -45 -9 -20 -1 -22
1 -10 9 8 5 29 9 45 9 26 0 27 -2 10 -9z m-460 -25 l60 -12 -43 -12 c-24 -7
-49 -10 -55 -7 -7 2 -2 5 11 5 43 2 22 21 -24 21 -25 0 -43 4 -40 9 4 5 -13 7
-36 5 -38 -3 -39 -2 -13 5 17 5 41 7 55 4 14 -3 52 -11 85 -18z m68 8 c-7 -2
-19 -2 -25 0 -7 3 -2 5 12 5 14 0 19 -2 13 -5z m307 -3 c20 -6 21 -8 5 -8 -11
0 -31 4 -45 8 -20 6 -21 8 -5 8 11 0 31 -4 45 -8z m140 6 c0 -2 -11 -6 -25 -8
-13 -3 -22 -1 -19 3 5 9 44 13 44 5z m-190 -26 c-8 -5 -33 -9 -55 -8 l-40 1
45 7 c25 4 50 8 55 8 6 1 3 -3 -5 -8z m-187 -7 c-13 -2 -33 -2 -45 0 -13 2 -3
4 22 4 25 0 35 -2 23 -4z m307 -2 c0 -4 -11 -6 -25 -3 -14 2 -25 6 -25 8 0 2
11 4 25 4 14 0 25 -4 25 -9z m95 -109 c-8 -9 -25 20 -18 31 3 5 10 2 15 -7 6
-10 7 -20 3 -24z m12 -109 c-3 -10 -5 -2 -5 17 0 19 2 27 5 18 2 -10 2 -26 0
-35z m94 -19 c-5 -35 -9 -46 -10 -28 -1 34 9 97 15 91 2 -2 0 -30 -5 -63z m16
-656 c-1 -112 -2 -21 -2 202 0 223 1 314 2 203 2 -112 2 -294 0 -405z m-589
387 c3 -3 3 -8 -1 -11 -10 -10 -97 6 -97 18 0 10 87 4 98 -7z m-98 -15 c12 -8
11 -10 -7 -10 -12 0 -25 5 -28 10 -8 13 15 13 35 0z m25 -26 c-18 -18 -76 -24
-82 -8 -2 6 10 9 31 6 18 -2 37 1 40 7 4 6 12 11 17 11 6 0 3 -7 -6 -16z m75
6 c0 -5 -5 -10 -11 -10 -5 0 -7 5 -4 10 3 6 8 10 11 10 2 0 4 -4 4 -10z m461
-229 c1 -235 0 -240 -43 -241 -16 0 -21 -9 -20 -30 0 -3 -15 -6 -33 -7 -18 -1
-47 -9 -63 -17 -36 -19 -134 -35 -247 -43 -75 -4 -84 -3 -135 25 -83 44 -113
98 -118 214 -9 182 34 261 163 299 55 16 114 22 275 27 113 4 208 5 212 2 4
-3 8 -106 9 -229z m-711 149 c-10 -24 -10 -33 0 -45 7 -9 10 -18 6 -22 -3 -4
-12 2 -20 12 -13 18 -9 56 9 85 14 22 17 0 5 -30z m24 -5 c-4 -8 -8 -15 -10
-15 -2 0 -4 7 -4 15 0 8 4 15 10 15 5 0 7 -7 4 -15z m56 11 c0 -3 -4 -8 -10
-11 -5 -3 -10 -1 -10 4 0 6 5 11 10 11 6 0 10 -2 10 -4z m-36 -91 c-4 -8 -8
-15 -10 -15 -2 0 -4 7 -4 15 0 8 4 15 10 15 5 0 7 -7 4 -15z m-74 -40 c0 -8
-4 -15 -10 -15 -5 0 -10 7 -10 15 0 8 5 15 10 15 6 0 10 -7 10 -15z m70 -78
c-1 -40 -7 -85 -15 -102 -14 -30 -14 -29 -7 15 4 25 7 73 7 107 0 34 3 59 7
57 5 -3 8 -38 8 -77z m76 -254 c-7 -7 -26 7 -26 19 0 6 6 6 15 -2 9 -7 13 -15
11 -17z m531 5 c-2 -8 -21 -13 -45 -13 -22 -1 -38 3 -36 7 3 4 18 5 34 1 19
-3 30 -1 30 6 0 6 5 11 11 11 6 0 9 -6 6 -12z m-577 -40 c-15 -17 -23 -19 -32
-10 -9 9 -6 14 13 21 37 15 41 13 19 -11z m555 2 c-3 -5 -11 -10 -16 -10 -6 0
-7 5 -4 10 3 6 11 10 16 10 6 0 7 -4 4 -10z m-215 -19 c0 -9 -150 -5 -159 4
-2 3 32 5 77 5 45 0 82 -4 82 -9z m427 -33 c-3 -7 -5 -2 -5 12 0 14 2 19 5 13
2 -7 2 -19 0 -25z m-604 15 c-13 -2 -33 -2 -45 0 -13 2 -3 4 22 4 25 0 35 -2
23 -4z m257 -13 c0 -14 -7 -20 -22 -20 -19 0 -20 2 -8 10 8 5 11 10 7 10 -11
0 2 20 14 20 5 0 9 -9 9 -20z m-315 -10 c-3 -5 -12 -10 -18 -10 -7 0 -6 4 3
10 19 12 23 12 15 0z m158 -14 c-24 -5 -62 -5 -90 1 -44 8 -40 9 42 8 76 0 83
-1 48 -9z"/>
<path d="M9706 5424 c-4 -10 -13 -13 -27 -9 -33 11 -148 -15 -219 -49 -36 -17
-66 -34 -68 -38 -2 -4 -10 -8 -18 -8 -8 0 -14 -4 -14 -10 0 -12 27 -13 34 -1
3 5 15 11 27 14 18 5 20 2 16 -19 -3 -16 0 -24 10 -24 12 0 12 -2 -1 -15 -16
-17 -46 -20 -46 -6 0 5 5 11 12 13 12 4 3 28 -12 28 -5 0 -16 -7 -24 -16 -15
-14 -16 -14 -16 1 0 8 -7 18 -15 22 -12 4 -15 17 -13 51 l3 46 -67 4 -68 3 0
-636 0 -636 65 3 c46 1 66 6 70 17 3 8 5 240 5 515 0 276 -1 506 0 511 1 25
173 95 232 95 15 0 28 4 28 9 0 5 37 13 83 17 77 8 80 9 37 15 l-45 6 42 1
c23 1 45 -2 48 -8 3 -5 15 -10 26 -10 17 0 19 7 19 65 l0 65 -49 0 c-35 0 -51
-4 -55 -16z m76 -77 c-9 -20 -17 6 -13 45 l5 43 6 -40 c3 -22 4 -43 2 -48z
m-22 33 c0 -21 -15 -27 -25 -10 -7 12 2 30 16 30 5 0 9 -9 9 -20z m-160 0 c0
-5 -9 -10 -20 -10 -11 0 -20 5 -20 10 0 6 9 10 20 10 11 0 20 -4 20 -10z m80
0 c0 -5 -7 -10 -16 -10 -8 0 -12 5 -9 10 3 6 10 10 16 10 5 0 9 -4 9 -10z
m-403 -6 c-3 -3 -12 -4 -19 -1 -8 3 -5 6 6 6 11 1 17 -2 13 -5z m43 -3 c0 -13
-29 -35 -37 -28 -7 8 15 37 28 37 5 0 9 -4 9 -9z m355 -28 c-11 -2 -32 -8 -47
-13 -22 -7 -28 -6 -28 6 0 10 12 14 48 13 26 -1 38 -3 27 -6z m-362 -47 c4
-10 0 -12 -14 -9 -22 6 -26 23 -5 23 8 0 16 -6 19 -14z m67 -50 c0 -3 -4 -8
-10 -11 -5 -3 -10 -1 -10 4 0 6 5 11 10 11 6 0 10 -2 10 -4z m-81 -610 c1
-264 -1 -477 -4 -474 -3 3 -7 229 -8 502 -1 274 1 487 5 474 3 -13 6 -239 7
-502z m18 422 c-2 -13 -4 -3 -4 22 0 25 2 35 4 23 2 -13 2 -33 0 -45z"/>
</g>
</svg>
