<?xml version="1.0" standalone="no"?>
<!DOCTYPE svg PUBLIC "-//W3C//DTD SVG 20010904//EN"
 "http://www.w3.org/TR/2001/REC-SVG-20010904/DTD/svg10.dtd">
<svg version="1.0" xmlns="http://www.w3.org/2000/svg"
 width="690.000000pt" height="300.000000pt" viewBox="0 0 690.000000 300.000000"
 preserveAspectRatio="xMidYMid meet">

<g transform="translate(0.000000,300.000000) scale(0.100000,-0.100000)"
fill="#fff" stroke="none">
<path d="M1925 2126 c-16 -8 -42 -26 -56 -42 -23 -25 -640 -1050 -654 -1086
-4 -10 20 -12 120 -8 l126 5 252 424 c140 234 257 426 263 428 9 2 204 -317
204 -336 0 -7 -52 -11 -157 -11 l-158 0 -52 -90 c-29 -48 -53 -91 -53 -94 0
-3 123 -6 273 -6 l273 0 95 -161 96 -160 121 -2 c67 -1 122 1 122 5 0 7 -613
1039 -641 1080 -21 28 -93 68 -125 68 -10 -1 -32 -7 -49 -14z"/>
<path d="M960 1813 c0 -175 -5 -347 -10 -382 -19 -116 -73 -185 -176 -223 -55
-21 -79 -23 -352 -26 l-292 -4 0 -93 0 -93 135 -7 c165 -9 404 1 505 22 205
41 324 154 365 348 11 54 15 150 15 423 l0 352 -95 0 -95 0 0 -317z"/>
<path d="M3112 1849 c-203 -64 -232 -306 -50 -400 21 -11 98 -35 170 -55 73
-19 151 -44 173 -54 103 -50 99 -176 -7 -232 -36 -19 -58 -23 -133 -23 -78 1
-97 5 -142 28 -58 30 -85 62 -104 125 -12 41 -14 43 -42 38 -16 -3 -38 -6 -48
-6 -39 0 -10 -112 47 -178 113 -133 390 -147 532 -28 70 60 97 189 55 271 -42
81 -97 111 -291 161 -159 41 -191 57 -214 105 -24 48 -10 99 39 136 35 27 42
28 144 28 93 0 111 -3 136 -21 38 -28 73 -82 73 -112 0 -23 2 -24 50 -20 28 3
53 8 56 11 11 11 -9 78 -37 121 -35 56 -86 91 -164 111 -79 20 -166 18 -243
-6z"/>
<path d="M3894 1850 c-169 -55 -261 -187 -271 -390 -9 -163 33 -286 128 -375
60 -56 112 -80 207 -96 84 -14 186 -1 262 32 197 87 281 402 169 637 -40 84
-91 135 -173 173 -59 28 -82 33 -165 36 -76 2 -109 -1 -157 -17z m262 -99
c114 -51 186 -206 170 -369 -20 -191 -128 -302 -296 -302 -119 0 -204 51 -259
154 -64 123 -48 334 34 441 71 94 231 128 351 76z"/>
<path d="M4517 1853 c-4 -3 -7 -197 -7 -430 l0 -423 265 0 265 0 0 55 0 55
-207 2 -208 3 -3 373 -2 372 -48 0 c-27 0 -52 -3 -55 -7z"/>
<path d="M5415 1843 c-4 -10 -64 -173 -135 -363 -70 -190 -139 -375 -154 -412
l-25 -68 58 0 59 0 43 128 44 127 186 3 186 2 48 -130 48 -130 64 0 c35 0 62
4 59 9 -3 4 -53 129 -111 277 -59 148 -133 338 -166 422 l-61 152 -68 0 c-55
0 -69 -3 -75 -17z m93 -118 c5 -16 38 -104 71 -195 33 -91 61 -168 61 -172 0
-5 -67 -8 -150 -8 -82 0 -150 2 -150 3 0 3 121 367 136 406 6 18 18 5 32 -34z"/>
<path d="M5957 1853 c-4 -3 -7 -197 -7 -430 l0 -423 60 0 60 0 0 190 0 190 90
0 c55 0 103 -5 123 -14 54 -23 111 -93 227 -278 l55 -88 68 0 c52 0 66 3 61
13 -73 119 -184 283 -219 324 -25 28 -42 54 -38 56 5 3 23 8 42 12 41 9 106
66 132 116 24 47 25 144 3 197 -18 43 -58 88 -96 108 -14 7 -66 18 -115 24
-98 11 -436 14 -446 3z m490 -110 c101 -48 98 -195 -5 -245 -42 -20 -66 -23
-209 -26 l-163 -4 0 146 0 146 171 0 c139 0 178 -3 206 -17z"/>
</g>
</svg>
