<?xml version="1.0" standalone="no"?>
<!DOCTYPE svg PUBLIC "-//W3C//DTD SVG 20010904//EN"
 "http://www.w3.org/TR/2001/REC-SVG-20010904/DTD/svg10.dtd">
<svg version="1.0" xmlns="http://www.w3.org/2000/svg"
 width="900.000000pt" height="900.000000pt" viewBox="0 0 900.000000 900.000000"
 preserveAspectRatio="xMidYMid meet">

<g transform="translate(0.000000,900.000000) scale(0.100000,-0.100000)"
fill="#fff" stroke="none">
<path d="M6765 5989 c-161 -21 -323 -72 -449 -143 -251 -141 -397 -446 -413
-866 -16 -429 132 -835 410 -1126 103 -108 183 -163 292 -200 68 -23 96 -27
190 -27 173 1 323 49 518 167 304 183 627 506 799 800 45 76 122 246 115 253
-3 2 -12 -15 -21 -39 -13 -32 -20 -39 -27 -27 -7 11 -9 11 -9 0 0 -7 -50 37
-111 98 -62 61 -116 108 -122 104 -6 -3 -8 -2 -4 3 7 12 -12 36 -45 58 -15 10
-25 22 -22 27 3 5 0 9 -6 9 -6 0 -8 5 -5 11 4 5 7 43 6 84 -2 200 -46 318
-165 438 -133 134 -301 235 -496 297 -58 18 -112 35 -120 38 -17 6 -33 9 -77
18 -52 10 -38 23 30 27 34 2 4 3 -68 4 -71 0 -161 -4 -200 -8z m260 -400 c234
-59 469 -223 550 -384 28 -56 30 -68 30 -170 0 -123 -12 -169 -73 -295 -20
-41 -39 -77 -42 -80 -25 -24 -60 -82 -55 -90 4 -6 1 -9 -6 -8 -6 2 -14 -3 -17
-11 -3 -10 0 -11 9 -5 12 7 12 5 0 -9 -12 -15 -11 -17 3 -17 21 0 58 37 46 45
-19 12 -10 23 15 20 14 -1 28 2 32 8 3 6 1 7 -5 3 -19 -11 -14 5 6 23 11 9 24
27 31 39 7 13 15 21 18 19 7 -8 43 26 43 41 0 7 12 24 26 37 15 14 23 29 18
36 -4 7 -3 9 3 6 12 -7 56 56 98 141 15 30 29 51 32 49 14 -15 -114 -224 -212
-347 -68 -85 -244 -254 -340 -326 -66 -50 -77 -55 -93 -43 -15 13 -16 12 -4
-2 11 -15 6 -20 -35 -45 -26 -15 -56 -27 -66 -27 -9 1 -15 -2 -12 -7 7 -11
-24 -22 -37 -13 -6 3 -8 1 -4 -5 5 -9 -13 -20 -46 -28 -5 -1 -9 -2 -10 -4 -2
-1 -10 -3 -18 -5 -8 -3 -42 -14 -75 -26 -145 -51 -306 -31 -420 53 -143 107
-279 338 -324 553 -28 138 -31 128 46 204 37 37 76 77 85 87 9 10 55 57 103
104 67 66 85 90 82 107 -2 12 0 20 4 17 5 -3 9 -13 10 -22 0 -9 7 9 15 40 38
158 122 248 266 285 37 10 68 20 68 23 0 4 15 5 33 3 l32 -4 -30 14 -30 15 29
11 c16 7 36 9 43 7 8 -4 11 -1 7 5 -8 14 64 4 171 -22z"/>
<path d="M6407 5173 c-3 -5 -1 -17 4 -28 6 -17 7 -16 6 8 -1 28 -3 32 -10 20z"/>
<path d="M7377 4512 c-19 -20 -23 -37 -7 -27 6 3 10 4 10 0 0 -3 -12 -10 -27
-16 -21 -8 -24 -12 -14 -22 10 -9 15 -8 25 6 7 9 18 17 24 17 14 0 25 34 13
38 -6 2 -9 8 -5 13 9 15 -2 10 -19 -9z"/>
<path d="M7320 4431 c0 -5 -10 -13 -22 -17 -19 -6 -20 -7 -4 -16 10 -5 20 -7
23 -4 4 3 0 6 -8 6 -8 1 -3 7 10 14 15 8 20 16 12 20 -6 4 -11 3 -11 -3z"/>
<path d="M7265 4380 c-4 -6 -12 -7 -18 -4 -7 4 -8 3 -4 -1 11 -13 37 -15 37
-4 0 6 5 7 12 3 7 -4 8 -3 4 4 -9 15 -23 15 -31 2z"/>
<path d="M7218 4343 c-10 -2 -18 -11 -18 -19 0 -11 4 -10 20 3 17 15 26 26 18
22 -2 -1 -11 -3 -20 -6z"/>
<path d="M7167 4305 c-10 -7 -14 -16 -9 -19 5 -3 15 1 22 9 17 21 9 27 -13 10z"/>
<path d="M7073 4237 c-18 -12 -32 -26 -33 -31 0 -4 15 3 33 16 17 14 39 27 47
31 13 5 13 5 0 5 -8 0 -29 -10 -47 -21z"/>
<path d="M3361 4860 c-324 -69 -567 -309 -632 -624 -105 -507 267 -966 781
-966 228 0 429 86 582 248 156 166 227 357 215 586 -18 353 -232 629 -572 736
-79 25 -296 36 -374 20z m248 -355 c225 -54 380 -279 343 -502 -32 -191 -183
-343 -376 -376 -232 -39 -464 131 -506 373 -38 220 123 457 342 505 83 18 120
18 197 0z"/>
<path d="M1672 4838 c-9 -9 -12 -195 -12 -774 0 -685 2 -762 16 -768 31 -12
299 -7 312 6 9 9 12 87 12 290 l0 278 256 0 c157 0 263 4 275 10 17 10 19 23
19 153 0 98 -4 147 -12 155 -9 9 -84 12 -275 12 l-263 0 0 160 c0 121 3 160
13 160 6 1 144 1 305 1 161 0 304 4 318 9 24 9 24 10 24 153 0 98 -4 147 -12
155 -17 17 -959 17 -976 0z"/>
<path d="M4252 4838 c-7 -7 -12 -18 -12 -25 0 -7 103 -173 229 -368 l230 -355
-183 -288 c-320 -505 -301 -472 -289 -490 9 -15 34 -17 194 -17 l184 0 141
223 c78 123 146 228 151 233 5 5 35 -32 73 -91 36 -55 105 -161 153 -235 l88
-135 178 0 c146 0 181 3 191 15 7 8 10 21 7 29 -3 8 -112 182 -241 385 l-235
371 229 353 c127 195 230 361 230 369 0 34 -24 39 -211 36 l-183 -3 -132 -210
c-72 -115 -135 -210 -140 -210 -5 1 -51 68 -101 150 -51 83 -111 178 -133 213
l-39 62 -184 0 c-129 0 -187 -4 -195 -12z"/>
<path d="M4854 3089 c-74 -21 -110 -100 -77 -167 15 -30 33 -45 103 -79 47
-24 93 -52 103 -64 53 -65 -26 -147 -114 -117 -19 6 -46 19 -60 29 -24 17 -28
17 -40 3 -11 -14 -9 -20 14 -40 52 -45 128 -55 194 -25 74 34 97 121 47 180
-14 17 -63 49 -109 71 -109 51 -132 94 -80 145 29 29 98 34 144 10 25 -13 31
-13 41 0 17 21 5 33 -52 50 -57 17 -69 17 -114 4z"/>
<path d="M5375 3085 c-48 -17 -72 -44 -81 -93 -12 -61 17 -100 109 -147 121
-62 149 -99 112 -152 -34 -48 -110 -49 -176 -2 -26 18 -33 19 -40 8 -5 -8 -9
-19 -9 -25 0 -17 74 -54 123 -60 84 -12 167 50 167 123 0 53 -34 90 -122 133
-46 22 -91 50 -100 61 -25 29 -22 71 5 97 28 27 103 30 148 7 26 -14 30 -14
35 0 9 23 -12 42 -61 54 -54 14 -61 13 -110 -4z"/>
<path d="M4230 2855 l0 -235 140 0 c133 0 140 1 140 20 0 18 -8 20 -117 22
l-118 3 0 85 0 85 103 3 c93 2 102 4 102 22 0 18 -9 20 -102 22 l-103 3 0 80
0 80 118 3 c109 2 117 4 117 22 0 19 -7 20 -140 20 l-140 0 0 -235z"/>
</g>
</svg>
