<?xml version="1.0" standalone="no"?>
<!DOCTYPE svg PUBLIC "-//W3C//DTD SVG 20010904//EN"
 "http://www.w3.org/TR/2001/REC-SVG-20010904/DTD/svg10.dtd">
<svg version="1.0" xmlns="http://www.w3.org/2000/svg"
 width="900.000000pt" height="381.000000pt" viewBox="0 0 900.000000 381.000000"
 preserveAspectRatio="xMidYMid meet">

<g transform="translate(0.000000,381.000000) scale(0.100000,-0.100000)"
fill="#fff" stroke="none">
<path d="M4647 2853 c-4 -3 -7 -75 -7 -160 l0 -153 165 0 165 0 0 160 0 160
-158 0 c-87 0 -162 -3 -165 -7z"/>
<path d="M1493 2226 c-101 -23 -188 -72 -269 -151 -155 -150 -211 -376 -143
-577 10 -31 19 -60 19 -63 0 -3 -112 -5 -250 -5 l-250 0 0 385 0 385 -165 0
-165 0 0 -535 0 -535 358 0 357 0 30 48 c16 26 51 80 76 121 l47 73 36 -50
c61 -84 180 -163 297 -198 65 -20 207 -22 279 -5 69 17 194 81 240 124 132
123 195 265 194 438 -2 240 -150 446 -377 526 -90 31 -224 39 -314 19z m218
-301 c68 -23 135 -90 159 -158 26 -75 25 -134 -4 -200 -30 -69 -85 -121 -153
-147 -100 -37 -189 -19 -272 56 -101 90 -119 232 -45 344 27 41 92 91 139 108
44 15 125 14 176 -3z"/>
<path d="M3830 2224 c-106 -23 -186 -68 -270 -153 -88 -89 -122 -148 -151
-263 -79 -311 131 -637 445 -693 272 -48 540 103 635 359 26 71 44 195 35 254
l-6 42 -279 0 -279 0 0 -95 0 -94 135 -3 134 -3 -17 -34 c-21 -45 -72 -95
-125 -123 -34 -19 -58 -23 -127 -23 -99 0 -140 17 -207 87 -53 55 -74 107 -76
188 -2 73 28 152 77 203 81 83 229 108 333 54 28 -15 54 -31 58 -37 4 -6 71
-10 176 -10 l169 0 -24 48 c-118 232 -376 353 -636 296z"/>
<path d="M4640 1660 l0 -550 165 0 165 0 0 550 0 550 -165 0 -165 0 0 -550z"/>
<path d="M5721 2194 c-182 -39 -281 -148 -281 -309 0 -46 7 -74 26 -113 42
-85 115 -135 285 -196 161 -58 217 -154 137 -235 -34 -35 -116 -56 -181 -46
-73 11 -181 38 -224 56 l-43 18 0 -103 0 -103 73 -24 c62 -21 91 -24 217 -24
142 0 146 1 212 32 156 73 235 224 194 367 -31 105 -99 158 -316 247 -126 51
-147 63 -166 100 -41 80 14 153 125 166 59 7 193 -19 267 -52 l54 -24 0 103 0
102 -52 17 c-121 37 -223 44 -327 21z"/>
<path d="M7194 2201 c-2 -2 -4 -249 -4 -548 l0 -543 95 0 95 0 0 545 0 545
-27 1 c-114 3 -155 3 -159 0z"/>
<path d="M2282 1668 l3 -533 142 -3 143 -3 2 328 3 328 70 -113 c39 -62 93
-151 120 -196 28 -46 86 -143 130 -215 l80 -131 162 0 163 0 0 535 0 535 -145
0 -145 0 0 -327 0 -327 -90 144 c-49 80 -94 154 -100 165 -5 11 -54 92 -108
180 l-99 160 -166 3 -167 2 2 -532z"/>
<path d="M6585 1907 c-123 -32 -212 -106 -268 -225 -30 -64 -32 -73 -32 -187
0 -110 2 -125 27 -178 56 -120 126 -181 252 -219 345 -105 619 283 439 622
-78 146 -259 227 -418 187z m161 -188 c35 -12 84 -60 107 -103 27 -52 29 -152
4 -217 -51 -132 -209 -174 -315 -83 -52 44 -77 109 -76 191 4 159 140 263 280
212z"/>
<path d="M7785 1906 c-122 -30 -213 -115 -246 -228 l-8 -28 93 0 93 0 24 38
c75 115 256 99 275 -25 8 -52 9 -51 -166 -92 -171 -40 -197 -48 -241 -79 -114
-81 -129 -253 -30 -340 101 -91 294 -96 419 -11 l42 28 14 -34 15 -35 97 0
c88 0 95 2 89 18 -39 90 -47 152 -54 387 -7 263 -10 277 -72 329 -89 75 -220
103 -344 72z m231 -503 c-13 -110 -72 -169 -181 -180 -66 -7 -110 9 -130 48
-22 41 -18 65 13 101 25 26 46 36 138 59 60 15 122 28 138 28 l29 1 -7 -57z"/>
<path d="M8380 1515 l0 -405 99 0 100 0 3 218 c3 205 4 220 26 262 28 53 76
106 114 126 31 16 105 18 142 4 l26 -10 0 90 c0 89 0 91 -27 102 -16 6 -55 11
-89 11 -69 1 -136 -31 -173 -80 l-20 -28 -1 58 0 57 -100 0 -100 0 0 -405z"/>
</g>
</svg>
